#!OML:ASF F:\VICON\USERDATA\INSTALL\rory3\rory3.ASF
:FULLY-SPECIFIED
:DEGREES
491
root 0.47074 15.6757 38.8659 1.3594 2.28003 7.3999
lowerback 11.8744 -0.3011 -10.1749
upperback -4.55172 -2.05214 0.475322
thorax -11.3831 -0.204663 6.71435
lowerneck -10.143 -6.38251 -5.27477
upperneck 19.9371 -8.91895 4.79658
head 8.31024 -4.17731 1.53795
rclavicle -1.85367e-014 -3.49861e-014
rhumerus -46.3108 -9.09471 -78.5507
rradius 25.6766
rwrist 1.30682
rhand -8.35474 19.4251
rfingers 7.12502
rthumb 17.5675 -9.8012
lclavicle -1.85367e-014 -3.49861e-014
lhumerus -31.9587 5.09956 85.9125
lradius 27.6957
lwrist 3.0328
lhand -4.71507 19.1282
lfingers 7.12502
lthumb 21.0672 48.0038
rfemur -31.7325 23.0805 4.19885
rtibia 23.4305
rfoot -17.4304 -16.5956
rtoes 26.5017
lfemur 21.5908 -12.4605 -36.0009
ltibia -4.77083e-014
lfoot -11.571 5.93068
ltoes 3.80859
492
root 0.441807 15.668 39.012 1.20349 2.60698 7.34939
lowerback 11.8106 -0.360612 -10.2039
upperback -4.49815 -2.1207 0.523804
thorax -11.2676 -0.242094 6.79491
lowerneck -10.2057 -6.44946 -5.51055
upperneck 20.1346 -9.016 4.972
head 8.41377 -4.22011 1.61916
rclavicle 1.85367e-014 2.22639e-014
rhumerus -46.1737 -8.72877 -78.6875
rradius 25.7445
rwrist 1.04737
rhand -8.46576 19.6319
rfingers 7.12502
rthumb 17.4606 -9.60393
lclavicle 1.85367e-014 2.22639e-014
lhumerus -32.0587 5.38269 85.8607
lradius 27.3417
lwrist 2.84708
lhand -4.76349 19.1149
lfingers 7.12502
lthumb 21.0206 47.9957
rfemur -31.3377 22.7798 4.64441
rtibia 23.946
rfoot -17.2506 -16.5138
rtoes 29.9732
lfemur 22.3554 -12.4246 -35.8574
ltibia 5.725e-014
lfoot -11.6449 5.49615
ltoes 4.52834
493
root 0.403223 15.6664 39.1455 1.03093 2.77066 6.76052
lowerback 11.9547 -0.365847 -9.80098
upperback -4.51054 -2.05604 0.729668
thorax -11.379 -0.223785 6.78905
lowerneck -10.0534 -6.49974 -5.76791
upperneck 20.1568 -9.09416 5.18512
head 8.42128 -4.25856 1.72701
rclavicle 3.57812e-015 7.15625e-015
rhumerus -46.1291 -8.65695 -78.5865
rradius 25.8701
rwrist 1.29106
rhand -8.20988 19.7578
rfingers 7.12502
rthumb 17.7069 -9.45594
lclavicle 3.57812e-015 7.15625e-015
lhumerus -32.2989 5.62834 85.7976
lradius 27.121
lwrist 2.72249
lhand -4.74003 19.3837
lfingers 7.12502
lthumb 21.0432 48.2619
rfemur -31.0774 22.8519 5.65245
rtibia 24.4773
rfoot -16.7232 -17.1004
rtoes 31.1447
lfemur 23.0074 -12.2553 -35.0674
ltibia -6.99722e-014
lfoot -11.5018 5.22872
ltoes 2.45987
494
root 0.386089 15.6665 39.2598 1.09496 3.11727 6.71913
lowerback 12.2822 -0.45165 -9.56731
upperback -4.68505 -2.17868 0.72754
thorax -11.7567 -0.270032 6.69743
lowerneck -9.85702 -6.45026 -5.6948
upperneck 20.0305 -9.02122 5.09662
head 8.33057 -4.23281 1.70164
rclavicle 2.5842e-014 8.74653e-015
rhumerus -46.1101 -8.88766 -78.2143
rradius 25.8364
rwrist 2.14449
rhand -8.06233 19.7368
rfingers 7.12502
rthumb 17.8489 -9.46414
lclavicle 2.5842e-014 8.74653e-015
lhumerus -32.7052 6.10961 85.622
lradius 26.9231
lwrist 2.32928
lhand -4.56346 19.7488
lfingers 7.12502
lthumb 21.2128 48.6081
rfemur -30.7821 21.5179 6.28349
rtibia 24.8878
rfoot -14.7234 -17.5513
rtoes 29.5757
lfemur 23.3777 -12.2902 -34.9252
ltibia -1.27222e-014
lfoot -10.9372 4.94049
ltoes 0.0540146
495
root 0.347721 15.669 39.391 1.02023 3.09018 6.48471
lowerback 12.3569 -0.409075 -9.55807
upperback -4.6989 -2.11481 0.854715
thorax -11.8258 -0.229269 6.82505
lowerneck -10.9227 -6.47633 -5.16806
upperneck 20.8982 -8.99164 4.34603
head 8.7555 -4.22108 1.32862
rclavicle 1.90336e-014 -1.51076e-014
rhumerus -46.0083 -8.82438 -78.0606
rradius 25.9916
rwrist 2.53445
rhand -7.89989 19.5197
rfingers 7.12502
rthumb 18.0052 -9.66693
lclavicle 1.90336e-014 -1.51076e-014
lhumerus -32.8491 6.76217 85.3853
lradius 26.4066
lwrist 1.72873
lhand -4.4834 19.6887
lfingers 7.12502
lthumb 21.2897 48.5393
rfemur -30.4635 20.8462 7.16448
rtibia 25.2519
rfoot -12.9186 -18.198
rtoes 26.758
lfemur 23.8316 -11.9717 -34.4562
ltibia 1.90833e-014
lfoot -10.2782 4.44299
ltoes 1.63088
496
root 0.308516 15.6703 39.5285 0.891558 3.1264 5.99156
lowerback 12.3101 -0.421907 -9.3271
upperback -4.67263 -2.06175 1.06903
thorax -11.7731 -0.215415 6.91988
lowerneck -10.84 -6.45144 -5.15057
upperneck 20.8722 -8.95538 4.31419
head 8.72704 -4.20782 1.32251
rclavicle -2.36057e-014 -1.51076e-014
rhumerus -45.8547 -8.70695 -77.9878
rradius 26.0564
rwrist 2.75929
rhand -8.09413 19.4826
rfingers 7.12502
rthumb 17.8183 -9.72113
lclavicle -2.36057e-014 -1.51076e-014
lhumerus -33.0998 7.39905 85.1556
lradius 25.9469
lwrist 1.14079
lhand -4.4219 19.6406
lfingers 7.12502
lthumb 21.3488 48.4846
rfemur -30.1482 20.2943 8.31197
rtibia 25.8368
rfoot -11.6569 -18.3683
rtoes 24.8303
lfemur 24.3831 -11.7051 -33.7341
ltibia 3.18055e-015
lfoot -9.696 4.10908
ltoes 3.042
497
root 0.271469 15.6705 39.6634 0.778658 3.17531 5.7152
lowerback 12.3073 -0.426903 -9.1885
upperback -4.69064 -2.03546 1.15608
thorax -11.7962 -0.207236 6.93333
lowerneck -9.62477 -6.37474 -5.68437
upperneck 19.9379 -8.93191 5.13345
head 8.253 -4.1923 1.73054
rclavicle -1.77912e-014 -1.74931e-014
rhumerus -45.7543 -8.75382 -77.9102
rradius 25.9302
rwrist 2.83213
rhand -8.19907 19.7571
rfingers 7.12502
rthumb 17.7173 -9.45572
lclavicle -1.77912e-014 -1.74931e-014
lhumerus -33.4824 7.88984 84.8866
lradius 25.5258
lwrist 0.53791
lhand -4.57746 19.5196
lfingers 7.12502
lthumb 21.1993 48.3805
rfemur -29.8736 19.6171 9.21843
rtibia 26.4867
rfoot -10.2048 -18.2455
rtoes 23.2093
lfemur 22.1607 -11.4288 -33.2507
ltibia 4.8428
lfoot -11.4634 3.8302
ltoes 3.53635
498
root 0.247579 15.6686 39.7973 0.707285 3.30661 5.71479
lowerback 12.3366 -0.450122 -9.10592
upperback -4.7214 -2.06141 1.11579
thorax -11.8468 -0.223789 6.84858
lowerneck -9.75973 -6.40927 -5.66793
upperneck 20.2023 -8.99301 5.13287
head 8.36928 -4.21436 1.71459
rclavicle 9.49197e-015 1.11319e-014
rhumerus -45.6587 -8.83458 -77.8139
rradius 25.8788
rwrist 2.87194
rhand -8.30843 19.7867
rfingers 7.12502
rthumb 17.612 -9.43561
lclavicle 9.49197e-015 1.11319e-014
lhumerus -33.8098 8.04426 84.7371
lradius 25.0256
lwrist 0.393448
lhand -5.09344 19.0975
lfingers 7.12502
lthumb 20.7036 48.0132
rfemur -29.6135 18.4729 9.83713
rtibia 27.2117
rfoot -8.57339 -17.7038
rtoes 23.4933
lfemur 21.2321 -11.2323 -33.1014
ltibia 7.37345
lfoot -12.138 3.44922
ltoes 4.90646
499
root 0.222296 15.6668 39.934 0.656568 3.3643 5.58686
lowerback 12.485 -0.457077 -8.97245
upperback -4.86596 -2.06627 1.14839
thorax -12.1035 -0.214321 6.821
lowerneck -9.63265 -6.39898 -5.50973
upperneck 20.2653 -8.97737 4.94682
head 8.34969 -4.2152 1.63296
rclavicle 1.3418e-014 -9.54166e-015
rhumerus -45.6825 -8.64443 -77.8031
rradius 25.8808
rwrist 2.76588
rhand -8.48215 19.3476
rfingers 7.12502
rthumb 17.4449 -9.88964
lclavicle 1.3418e-014 -9.54166e-015
lhumerus -34.3098 8.66956 84.3422
lradius 24.5349
lwrist 0.199675
lhand -5.07142 18.4992
lfingers 7.12502
lthumb 20.7248 47.4126
rfemur -29.4391 17.6214 10.5346
rtibia 28.019
rfoot -7.47244 -17.1557
rtoes 21.0883
lfemur 20.6395 -10.9784 -32.7909
ltibia 9.2398
lfoot -12.1938 3.09134
ltoes 5.72978
500
root 0.182026 15.666 40.0746 0.465864 3.25897 5.31181
lowerback 12.3104 -0.404537 -8.96213
upperback -4.71549 -1.95572 1.26315
thorax -11.8414 -0.17791 6.90829
lowerneck -9.56703 -6.40024 -5.45608
upperneck 20.0705 -8.99155 5.00125
head 8.273 -4.21616 1.64436
rclavicle 2.52953e-014 -2.38542e-015
rhumerus -45.2451 -8.92226 -77.6085
rradius 25.659
rwrist 3.17679
rhand -8.48258 19.0742
rfingers 7.12502
rthumb 17.4445 -10.163
lclavicle 2.52953e-014 -2.38542e-015
lhumerus -34.4019 9.37906 83.9518
lradius 24.009
lwrist -0.295605
lhand -4.90634 18.2702
lfingers 7.12502
lthumb 20.8834 47.1662
rfemur -29.3009 17.4234 11.3868
rtibia 29.0629
rfoot -7.08722 -16.7098
rtoes 18.8693
lfemur 20.4615 -10.5677 -32.2438
ltibia 10.523
lfoot -11.8219 2.80746
ltoes 3.36014
501
root 0.146204 15.6606 40.2196 0.213286 3.12816 4.9919
lowerback 12.2496 -0.351808 -8.80278
upperback -4.65711 -1.83761 1.35982
thorax -11.7586 -0.136247 6.89644
lowerneck -9.4897 -6.41947 -5.50238
upperneck 20.1285 -9.0365 5.08716
head 8.28741 -4.23379 1.67727
rclavicle 5.76476e-015 1.11319e-014
rhumerus -45.1264 -9.13101 -77.3838
rradius 25.5837
rwrist 3.5445
rhand -8.54826 18.9627
rfingers 7.12502
rthumb 17.3812 -10.2802
lclavicle 5.76476e-015 1.11319e-014
lhumerus -34.8181 9.79844 83.6407
lradius 23.5696
lwrist -0.56047
lhand -4.81912 18.6133
lfingers 7.12502
lthumb 20.9672 47.5
rfemur -28.9919 17.2265 12.306
rtibia 29.9925
rfoot -6.93453 -16.2036
rtoes 18.0036
lfemur 20.1927 -9.93446 -31.6185
ltibia 12.1922
lfoot -11.5867 2.41508
ltoes 0.584373
502
root 0.132868 15.6521 40.3485 0.231507 3.33368 5.63514
lowerback 12.292 -0.390414 -9.20866
upperback -4.75269 -1.9956 1.11752
thorax -11.8673 -0.182192 6.89434
lowerneck -9.51181 -6.42162 -5.50085
upperneck 20.3311 -9.06032 5.12465
head 8.36269 -4.23877 1.68457
rclavicle 1.6201e-014 -1.90833e-014
rhumerus -45.0645 -9.50402 -77.0368
rradius 25.3631
rwrist 4.06581
rhand -8.59846 19.3517
rfingers 7.12502
rthumb 17.3329 -9.89546
lclavicle 1.6201e-014 -1.90833e-014
lhumerus -35.3952 10.0815 83.3215
lradius 23.2808
lwrist -0.616324
lhand -4.79901 18.4361
lfingers 7.12502
lthumb 20.9865 47.3207
rfemur -28.8929 16.0387 12.0916
rtibia 30.9281
rfoot -6.0504 -15.5354
rtoes 14.2471
lfemur 19.5159 -9.52005 -32.0459
ltibia 14.1077
lfoot -11.1254 1.73902
ltoes -0.151381
